<?xml version="1.0" encoding="iso-8859-1"?>
<!-- Uploaded to: SVG Repo, www.svgrepo.com, Generator: SVG Repo Mixer Tools -->
<svg height="800px" width="800px" version="1.1" id="Layer_1" xmlns="http://www.w3.org/2000/svg" xmlns:xlink="http://www.w3.org/1999/xlink" 
	 viewBox="0 0 501.551 501.551" xml:space="preserve">
<g>
	<path style="fill:#F2F2F2;" d="M286.302,457.665h-70.008c-24.033,0-43.886,19.853-43.886,43.886h156.735
		C329.143,477.518,310.335,457.665,286.302,457.665z"/>
	<path style="fill:#F2F2F2;" d="M144.196,0v243.461c0,58.514,48.065,106.58,106.58,106.58s106.58-48.065,106.58-106.58V0H144.196z"
		/>
</g>
<path style="fill:#CDD6E0;" d="M250.775,350.041c-5.224,0-11.494-1.045-16.718-1.045V458.71h33.437V348.996
	C262.269,348.996,256,350.041,250.775,350.041z"/>
<path style="fill:#84DBFF;" d="M159.869,81.502v161.959c0,50.155,40.751,90.906,90.906,90.906s90.906-40.751,90.906-90.906V76.278
	C281.078,51.2,220.473,105.535,159.869,81.502z"/>
<g>
	<circle style="fill:#FFFFFF;" cx="234.057" cy="54.335" r="15.673"/>
	<circle style="fill:#FFFFFF;" cx="293.616" cy="44.931" r="8.359"/>
	<circle style="fill:#FFFFFF;" cx="274.808" cy="18.808" r="5.224"/>
	<circle style="fill:#FFFFFF;" cx="216.294" cy="24.033" r="5.224"/>
</g>
</svg>